HIERARCHY
ROOT Hips
{
	OFFSET 0.000000 0.000000 0.000000
	CHANNELS 6 Xposition Yposition Zposition Yrotation Xrotation Zrotation
	JOINT Chest
	{
		OFFSET 0.000000 -0.009281 11.569106
		CHANNELS 3 Yrotation Xrotation Zrotation
		JOINT Chest2
		{
			OFFSET -0.000000 0.016865 9.269641
			CHANNELS 3 Yrotation Xrotation Zrotation
			JOINT Chest3
			{
				OFFSET -0.000000 0.000001 8.374491
				CHANNELS 3 Yrotation Xrotation Zrotation
				JOINT Chest4
				{
					OFFSET -0.000000 0.000001 8.374493
					CHANNELS 3 Yrotation Xrotation Zrotation
					JOINT Neck
					{
						OFFSET -0.000000 0.000002 12.152554
						CHANNELS 3 Yrotation Xrotation Zrotation
						JOINT Head
						{
							OFFSET -0.000000 0.040101 7.802319
							CHANNELS 3 Yrotation Xrotation Zrotation
							End Site
							{
								OFFSET -0.000000 0.020947 14.853096
							}
						}
					}
					JOINT RightCollar
					{
						OFFSET 2.894404 0.000001 6.791374
						CHANNELS 3 Yrotation Xrotation Zrotation
						JOINT RightShoulder
						{
							OFFSET 13.574684 0.000001 0.000000
							CHANNELS 3 Yrotation Xrotation Zrotation
							JOINT RightElbow
							{
								OFFSET 23.923903 0.000002 0.000000
								CHANNELS 3 Yrotation Xrotation Zrotation
								JOINT RightWrist
								{
									OFFSET 19.846718 0.012767 0.000000
									CHANNELS 3 Yrotation Xrotation Zrotation
									End Site
									{
										OFFSET 14.973145 0.000001 0.000000
									}
								}
							}
						}
					}
					JOINT LeftCollar
					{
						OFFSET -2.894404 0.000001 6.791374
						CHANNELS 3 Yrotation Xrotation Zrotation
						JOINT LeftShoulder
						{
							OFFSET -13.574684 -0.000001 0.000000
							CHANNELS 3 Yrotation Xrotation Zrotation
							JOINT LeftElbow
							{
								OFFSET -23.923903 -0.000002 0.000000
								CHANNELS 3 Yrotation Xrotation Zrotation
								JOINT LeftWrist
								{
									OFFSET -19.846718 0.012763 0.000000
									CHANNELS 3 Yrotation Xrotation Zrotation
									End Site
									{
										OFFSET -14.973145 -0.000001 0.000000
									}
								}
							}
						}
					}
				}
			}
		}
	}
	JOINT RightHip
	{
		OFFSET 9.469263 0.004643 0.045487
		CHANNELS 3 Yrotation Xrotation Zrotation
		JOINT RightKnee
		{
			OFFSET 0.000000 0.002661 -40.478676
			CHANNELS 3 Yrotation Xrotation Zrotation
			JOINT RightAnkle
			{
				OFFSET 0.000000 0.049106 -35.224068
				CHANNELS 3 Yrotation Xrotation Zrotation
				JOINT RightToe
				{
					OFFSET -0.000001 12.539529 -6.151390
					CHANNELS 3 Yrotation Xrotation Zrotation
					End Site
					{
						OFFSET -0.000001 5.044994 -1.291870
					}
				}
			}
		}
	}
	JOINT LeftHip
	{
		OFFSET -9.469263 0.004641 0.045487
		CHANNELS 3 Yrotation Xrotation Zrotation
		JOINT LeftKnee
		{
			OFFSET 0.000000 0.002661 -40.478676
			CHANNELS 3 Yrotation Xrotation Zrotation
			JOINT LeftAnkle
			{
				OFFSET 0.000000 0.049106 -35.224068
				CHANNELS 3 Yrotation Xrotation Zrotation
				JOINT LeftToe
				{
					OFFSET -0.000001 12.539529 -6.151390
					CHANNELS 3 Yrotation Xrotation Zrotation
					End Site
					{
						OFFSET -0.000001 5.044994 -1.291870
					}
				}
			}
		}
	}
}
MOTION
Frames: 5
Frame Time: 0.016667
20.296110 14.915948 82.888016 -2.339981 -2.962931 -97.480521 -0.790399 -2.310364 0.548878 -0.353320 -1.036565 0.236918 -0.353320 -1.036565 0.236919 -0.264581 -0.777561 0.177086 4.129046 -16.843055 -8.887412 4.538325 4.893256 -15.012425 8.657084 0.623202 -2.640454 46.467539 -17.634983 -8.503632 20.779367 -36.192363 41.337592 -25.142707 38.255193 68.608840 -7.684607 3.229852 -4.674038 -45.178758 -5.714640 11.145448 -32.675188 -54.281713 -19.891287 13.562827 10.752187 -54.007819 -17.195281 -3.197753 -20.686541 2.347208 -16.022232 -10.758536 0.843020 -6.117819 18.823629 4.171123 2.520061 0.437074 -6.753354 -7.451570 -3.236617 -1.221878 -5.338777 8.986529 5.292849 5.895393 8.370897 0.157931 0.279045 0.001506 
20.202900 14.952605 82.849182 -2.340640 -2.925448 -97.652799 -0.809774 -2.263443 0.536382 -0.357613 -1.014420 0.231905 -0.357613 -1.014420 0.231905 -0.267817 -0.760951 0.173331 4.056285 -16.817382 -8.819536 4.425141 4.937305 -14.913161 8.656511 0.590111 -2.645564 46.505054 -17.659468 -8.523734 20.868267 -36.138227 41.216623 -25.137603 38.284095 68.611169 -7.683801 3.167485 -4.680134 -45.150279 -5.749590 11.096725 -32.741871 -54.289520 -19.830956 13.559858 10.759514 -54.015585 -17.059446 -3.966194 -20.502317 2.590276 -16.380418 -10.686121 0.678562 -5.599760 18.406788 5.912346 3.110609 0.716134 -6.821055 -7.396158 -3.334515 -1.277808 -5.328526 8.982566 5.479474 5.976321 8.591439 0.053723 0.100506 -0.001214 
20.107626 14.986739 82.812172 -2.347844 -2.850108 -97.812598 -0.854118 -2.234758 0.516104 -0.371856 -1.001023 0.222048 -0.371856 -1.001023 0.222046 -0.278521 -0.750902 0.165922 3.990035 -16.771622 -8.750819 4.322528 5.019165 -14.810729 8.666532 0.540940 -2.643772 46.562656 -17.688797 -8.534776 20.919524 -36.055527 41.125573 -25.135742 38.300057 68.610541 -7.661813 3.085548 -4.691159 -45.116231 -5.751795 11.032082 -32.811580 -54.304843 -19.776485 13.542220 10.784724 -54.059229 -16.945339 -4.701051 -20.339936 2.867930 -16.782540 -10.651820 0.499513 -5.090916 18.049183 7.289726 3.979042 0.951696 -6.905006 -7.322089 -3.391326 -1.369620 -5.340532 8.996348 5.619194 6.049662 8.769198 0.013505 -0.021391 0.000658 
20.008961 15.022595 82.780930 -2.359118 -2.732421 -97.964331 -0.923706 -2.218347 0.493139 -0.398144 -0.994303 0.210518 -0.398145 -0.994303 0.210517 -0.298258 -0.745864 0.157236 3.934774 -16.714373 -8.687984 4.237218 5.123040 -14.715714 8.685840 0.504931 -2.651219 46.630986 -17.726713 -8.538646 20.976127 -35.956329 41.028465 -25.143108 38.303390 68.600439 -7.633179 3.011471 -4.711134 -45.073405 -5.766832 10.967547 -32.898767 -54.309877 -19.721770 13.516143 10.864785 -54.132210 -16.836222 -5.388095 -20.231705 3.144962 -17.212012 -10.683360 0.314953 -4.629681 17.736669 8.362856 5.076830 1.158483 -7.012870 -7.238214 -3.426400 -1.475066 -5.360537 9.069649 5.712282 6.092777 8.845946 0.005437 -0.085264 0.002986 
19.911432 15.060275 82.753922 -2.359295 -2.586872 -98.109951 -1.003801 -2.198182 0.465707 -0.430663 -0.985837 0.196774 -0.430664 -0.985838 0.196773 -0.322672 -0.739517 0.146881 3.883152 -16.663730 -8.631954 4.156869 5.214734 -14.631841 8.696937 0.465949 -2.659754 46.719587 -17.743373 -8.526636 21.042206 -35.853876 40.897441 -25.151528 38.287565 68.574744 -7.608819 2.940333 -4.727965 -45.024781 -5.806513 10.911229 -32.987481 -54.286466 -19.676460 13.479849 10.980004 -54.230650 -16.702092 -6.015884 -20.183779 3.413129 -17.650918 -10.758732 0.182850 -4.274167 17.382855 9.132003 6.402084 1.333374 -7.146012 -7.162835 -3.474179 -1.577870 -5.325304 9.108174 5.845891 6.062108 8.864919 -0.027879 -0.112866 0.002371 
